<svg width="24" height="24" viewBox="0 0 24 24" fill="none" xmlns="http://www.w3.org/2000/svg">
<path d="M4 6.22222C4 13.8315 10.1685 20 17.7778 20C18.1211 20 18.4615 19.9874 18.7985 19.9628C19.1852 19.9344 19.3786 19.9203 19.5546 19.8189C19.7004 19.735 19.8387 19.5862 19.9118 19.4347C20 19.2517 20 19.0383 20 18.6115V16.1073C20 15.7484 20 15.5689 19.9409 15.4151C19.8888 15.2792 19.804 15.1582 19.6941 15.0627C19.5697 14.9547 19.4011 14.8933 19.0638 14.7707L16.2133 13.7341C15.8209 13.5914 15.6247 13.5201 15.4385 13.5322C15.2743 13.5429 15.1164 13.5989 14.9822 13.694C14.83 13.8019 14.7226 13.9809 14.5077 14.339L14.5077 14.339L13.7778 15.5556C11.4223 14.4888 9.5128 12.5768 8.44444 10.2222L9.66101 9.49229C10.0191 9.27745 10.1981 9.17003 10.306 9.01783C10.4011 8.88363 10.4571 8.72566 10.4678 8.56151C10.4799 8.37535 10.4086 8.17913 10.2659 7.78671L9.22932 4.93619C9.10667 4.5989 9.04534 4.43025 8.93726 4.30586C8.84179 4.19599 8.7208 4.11124 8.58491 4.05907C8.43107 4 8.25162 4 7.89273 4H5.38846C4.96167 4 4.74828 4 4.56531 4.08822C4.41378 4.1613 4.26501 4.29957 4.18107 4.44536C4.07972 4.62139 4.06556 4.81477 4.03723 5.20153C4.01256 5.53854 4 5.87892 4 6.22222Z" stroke="black" stroke-width="1.5" stroke-linecap="round" stroke-linejoin="round"/>
</svg>
